<svg width="167" height="63" viewBox="0 0 167 63" fill="none" xmlns="http://www.w3.org/2000/svg">
<rect width="167" height="63" rx="10" fill="#D4D1FC"/>
<path d="M33.6557 17.2176C34.2542 16.5277 34.7106 15.7264 34.9986 14.8596C35.2867 13.9928 35.4006 13.0777 35.334 12.1667C33.4963 12.3151 31.7905 13.1794 30.584 14.5734C30.0062 15.2415 29.5684 16.0188 29.2964 16.8592C29.0245 17.6996 28.9239 18.586 29.0007 19.4659C29.8971 19.4734 30.7831 19.2745 31.5904 18.8846C32.3976 18.4947 33.1042 17.9243 33.6557 17.2176ZM37.6457 28.9976C37.6563 27.7843 37.9758 26.5938 38.5742 25.5383C39.1726 24.4828 40.0301 23.5972 41.0657 22.9651C40.4121 22.0234 39.5481 21.2469 38.5422 20.6972C37.5363 20.1476 36.4162 19.8398 35.2707 19.7984C32.8007 19.5451 30.5207 21.2392 29.2065 21.2392C27.8923 21.2392 26.0398 19.8301 23.9815 19.8617C22.6359 19.9061 21.3247 20.2984 20.1759 21.0005C19.027 21.7025 18.0798 22.6903 17.4265 23.8676C14.6398 28.7126 16.714 35.9167 19.5007 39.8276C20.7673 41.7434 22.3507 43.9126 24.4407 43.8334C26.5307 43.7542 27.2115 42.5351 29.634 42.5351C32.0565 42.5351 32.8007 43.8334 34.859 43.7859C36.9173 43.7384 38.374 41.8226 39.704 39.9067C40.6461 38.5158 41.3821 36.9959 41.889 35.3942C40.6342 34.8591 39.5636 33.9681 38.8095 32.8313C38.0554 31.6945 37.6508 30.3617 37.6457 28.9976Z" fill="black"/>
<path d="M57.59 10.12H59.192L63.584 22H61.937L60.911 19.138H55.871L54.827 22H53.18L57.59 10.12ZM56.366 17.752H60.425L58.409 12.01H58.382L56.366 17.752ZM63.1605 14.611H64.8435L67.2555 20.551L69.6675 14.611H71.3415L68.1825 22H66.3375L63.1605 14.611ZM78.3506 22V20.56C78.3026 20.71 78.1616 20.917 77.9276 21.181C77.6996 21.445 77.3846 21.685 76.9826 21.901C76.5866 22.111 76.1186 22.216 75.5786 22.216C74.8946 22.216 74.2736 22.054 73.7156 21.73C73.1636 21.406 72.7226 20.953 72.3926 20.371C72.0686 19.783 71.9066 19.096 71.9066 18.31C71.9066 17.524 72.0686 16.84 72.3926 16.258C72.7226 15.67 73.1636 15.214 73.7156 14.89C74.2736 14.56 74.8946 14.395 75.5786 14.395C76.1126 14.395 76.5746 14.491 76.9646 14.683C77.3606 14.875 77.6756 15.097 77.9096 15.349C78.1496 15.601 78.2906 15.817 78.3326 15.997V14.611H79.8806V22H78.3506ZM73.4546 18.31C73.4546 18.844 73.5716 19.306 73.8056 19.696C74.0396 20.086 74.3426 20.389 74.7146 20.605C75.0926 20.815 75.4946 20.92 75.9206 20.92C76.3766 20.92 76.7846 20.812 77.1446 20.596C77.5046 20.38 77.7896 20.077 77.9996 19.687C78.2096 19.291 78.3146 18.832 78.3146 18.31C78.3146 17.788 78.2096 17.332 77.9996 16.942C77.7896 16.546 77.5046 16.24 77.1446 16.024C76.7846 15.802 76.3766 15.691 75.9206 15.691C75.4946 15.691 75.0926 15.799 74.7146 16.015C74.3426 16.231 74.0396 16.534 73.8056 16.924C73.5716 17.314 73.4546 17.776 73.4546 18.31ZM81.7441 22V14.611H83.3101V22H81.7441ZM82.5451 12.082C82.2631 12.082 82.0201 11.983 81.8161 11.785C81.6181 11.581 81.5191 11.338 81.5191 11.056C81.5191 10.774 81.6181 10.531 81.8161 10.327C82.0201 10.123 82.2631 10.021 82.5451 10.021C82.7311 10.021 82.9021 10.069 83.0581 10.165C83.2201 10.261 83.3491 10.387 83.4451 10.543C83.5411 10.693 83.5891 10.864 83.5891 11.056C83.5891 11.338 83.4871 11.581 83.2831 11.785C83.0791 11.983 82.8331 12.082 82.5451 12.082ZM86.933 22H85.358V9.616H86.933V22ZM94.7288 22V20.56C94.6808 20.71 94.5398 20.917 94.3058 21.181C94.0778 21.445 93.7628 21.685 93.3608 21.901C92.9648 22.111 92.4968 22.216 91.9568 22.216C91.2728 22.216 90.6518 22.054 90.0938 21.73C89.5418 21.406 89.1008 20.953 88.7708 20.371C88.4468 19.783 88.2848 19.096 88.2848 18.31C88.2848 17.524 88.4468 16.84 88.7708 16.258C89.1008 15.67 89.5418 15.214 90.0938 14.89C90.6518 14.56 91.2728 14.395 91.9568 14.395C92.4908 14.395 92.9528 14.491 93.3428 14.683C93.7388 14.875 94.0538 15.097 94.2878 15.349C94.5278 15.601 94.6688 15.817 94.7108 15.997V14.611H96.2588V22H94.7288ZM89.8328 18.31C89.8328 18.844 89.9498 19.306 90.1838 19.696C90.4178 20.086 90.7208 20.389 91.0928 20.605C91.4708 20.815 91.8728 20.92 92.2988 20.92C92.7548 20.92 93.1628 20.812 93.5228 20.596C93.8828 20.38 94.1678 20.077 94.3778 19.687C94.5878 19.291 94.6928 18.832 94.6928 18.31C94.6928 17.788 94.5878 17.332 94.3778 16.942C94.1678 16.546 93.8828 16.24 93.5228 16.024C93.1628 15.802 92.7548 15.691 92.2988 15.691C91.8728 15.691 91.4708 15.799 91.0928 16.015C90.7208 16.231 90.4178 16.534 90.1838 16.924C89.9498 17.314 89.8328 17.776 89.8328 18.31ZM97.9152 22V9.616H99.4992V15.997C99.5352 15.811 99.6762 15.592 99.9222 15.34C100.168 15.088 100.498 14.869 100.912 14.683C101.326 14.491 101.803 14.395 102.343 14.395C103.033 14.395 103.645 14.56 104.179 14.89C104.713 15.214 105.133 15.67 105.439 16.258C105.751 16.84 105.907 17.524 105.907 18.31C105.907 19.096 105.751 19.783 105.439 20.371C105.133 20.953 104.713 21.406 104.179 21.73C103.645 22.054 103.033 22.216 102.343 22.216C101.833 22.216 101.371 22.12 100.957 21.928C100.549 21.736 100.216 21.511 99.9582 21.253C99.7002 20.995 99.5382 20.764 99.4722 20.56V22H97.9152ZM104.35 18.31C104.35 17.776 104.242 17.314 104.026 16.924C103.81 16.534 103.522 16.231 103.162 16.015C102.808 15.799 102.418 15.691 101.992 15.691C101.53 15.691 101.11 15.802 100.732 16.024C100.354 16.24 100.054 16.546 99.8322 16.942C99.6102 17.332 99.4992 17.788 99.4992 18.31C99.4992 18.832 99.6102 19.291 99.8322 19.687C100.054 20.077 100.354 20.38 100.732 20.596C101.11 20.812 101.53 20.92 101.992 20.92C102.418 20.92 102.808 20.815 103.162 20.605C103.522 20.389 103.81 20.086 104.026 19.696C104.242 19.306 104.35 18.844 104.35 18.31ZM108.62 22H107.045V9.616H108.62V22ZM111.456 18.625C111.462 19.069 111.558 19.474 111.744 19.84C111.93 20.206 112.206 20.497 112.572 20.713C112.944 20.929 113.4 21.037 113.94 21.037C114.396 21.037 114.783 20.971 115.101 20.839C115.425 20.701 115.689 20.539 115.893 20.353C116.097 20.161 116.244 19.99 116.334 19.84L117.099 20.785C116.901 21.073 116.658 21.325 116.37 21.541C116.088 21.757 115.743 21.922 115.335 22.036C114.927 22.156 114.429 22.216 113.841 22.216C113.049 22.216 112.362 22.048 111.78 21.712C111.204 21.37 110.76 20.899 110.448 20.299C110.136 19.693 109.98 19 109.98 18.22C109.98 17.5 110.127 16.852 110.421 16.276C110.715 15.694 111.141 15.235 111.699 14.899C112.263 14.563 112.941 14.395 113.733 14.395C114.459 14.395 115.089 14.548 115.623 14.854C116.163 15.154 116.58 15.58 116.874 16.132C117.174 16.684 117.324 17.344 117.324 18.112C117.324 18.16 117.321 18.247 117.315 18.373C117.309 18.493 117.303 18.577 117.297 18.625H111.456ZM115.83 17.446C115.824 17.2 115.752 16.93 115.614 16.636C115.482 16.342 115.266 16.09 114.966 15.88C114.666 15.67 114.261 15.565 113.751 15.565C113.223 15.565 112.797 15.667 112.473 15.871C112.155 16.075 111.921 16.324 111.771 16.618C111.621 16.906 111.534 17.182 111.51 17.446H115.83ZM126.156 22.216C125.394 22.216 124.716 22.045 124.122 21.703C123.534 21.361 123.072 20.899 122.736 20.317C122.4 19.729 122.232 19.066 122.232 18.328C122.232 17.59 122.4 16.924 122.736 16.33C123.072 15.736 123.534 15.265 124.122 14.917C124.716 14.569 125.394 14.395 126.156 14.395C126.912 14.395 127.581 14.569 128.163 14.917C128.751 15.265 129.21 15.736 129.54 16.33C129.87 16.924 130.035 17.59 130.035 18.328C130.035 19.066 129.87 19.729 129.54 20.317C129.21 20.899 128.751 21.361 128.163 21.703C127.581 22.045 126.912 22.216 126.156 22.216ZM126.156 20.875C126.636 20.875 127.053 20.764 127.407 20.542C127.767 20.32 128.046 20.017 128.244 19.633C128.442 19.243 128.541 18.805 128.541 18.319C128.541 17.833 128.442 17.395 128.244 17.005C128.046 16.615 127.767 16.306 127.407 16.078C127.053 15.85 126.636 15.736 126.156 15.736C125.67 15.736 125.247 15.85 124.887 16.078C124.527 16.306 124.245 16.615 124.041 17.005C123.843 17.395 123.744 17.833 123.744 18.319C123.744 18.805 123.843 19.243 124.041 19.633C124.245 20.017 124.527 20.32 124.887 20.542C125.247 20.764 125.67 20.875 126.156 20.875ZM135.502 14.395C135.988 14.395 136.459 14.497 136.915 14.701C137.377 14.905 137.755 15.229 138.049 15.673C138.349 16.111 138.499 16.684 138.499 17.392V22H136.915V17.698C136.915 16.966 136.744 16.435 136.402 16.105C136.06 15.769 135.619 15.601 135.079 15.601C134.725 15.601 134.383 15.703 134.053 15.907C133.729 16.105 133.462 16.381 133.252 16.735C133.042 17.083 132.937 17.479 132.937 17.923V22H131.371V14.611H132.937V15.925C132.991 15.721 133.138 15.499 133.378 15.259C133.618 15.019 133.924 14.815 134.296 14.647C134.668 14.479 135.07 14.395 135.502 14.395Z" fill="#45413C"/>
<path d="M58.1 36.8H60.25L65.23 50H62.99L61.9 46.98H56.46L55.36 50H53.11L58.1 36.8ZM57.14 45.11H61.22L59.19 39.36H59.16L57.14 45.11ZM68.2395 54.16H66.1195V41.79H68.2695V43.22C68.3429 43.02 68.5129 42.79 68.7795 42.53C69.0529 42.27 69.4129 42.0433 69.8595 41.85C70.3062 41.65 70.8162 41.55 71.3895 41.55C72.1629 41.55 72.8395 41.7367 73.4195 42.11C74.0062 42.4767 74.4629 42.9867 74.7895 43.64C75.1229 44.2933 75.2895 45.0467 75.2895 45.9C75.2895 46.7533 75.1195 47.5067 74.7795 48.16C74.4395 48.8133 73.9695 49.3233 73.3695 49.69C72.7762 50.0567 72.0929 50.24 71.3195 50.24C70.7129 50.24 70.1862 50.13 69.7395 49.91C69.2929 49.6833 68.9429 49.43 68.6895 49.15C68.4362 48.87 68.2862 48.6467 68.2395 48.48V54.16ZM73.1795 45.9C73.1795 45.3733 73.0695 44.9133 72.8495 44.52C72.6295 44.1267 72.3362 43.8233 71.9695 43.61C71.6095 43.39 71.2129 43.28 70.7795 43.28C70.3129 43.28 69.8895 43.3933 69.5095 43.62C69.1295 43.84 68.8262 44.1467 68.5995 44.54C68.3795 44.9267 68.2695 45.38 68.2695 45.9C68.2695 46.42 68.3795 46.8767 68.5995 47.27C68.8262 47.6567 69.1295 47.96 69.5095 48.18C69.8895 48.4 70.3129 48.51 70.7795 48.51C71.2129 48.51 71.6095 48.4033 71.9695 48.19C72.3362 47.9767 72.6295 47.6733 72.8495 47.28C73.0695 46.8867 73.1795 46.4267 73.1795 45.9ZM78.7575 54.16H76.6375V41.79H78.7875V43.22C78.8608 43.02 79.0308 42.79 79.2975 42.53C79.5708 42.27 79.9308 42.0433 80.3775 41.85C80.8242 41.65 81.3342 41.55 81.9075 41.55C82.6808 41.55 83.3575 41.7367 83.9375 42.11C84.5242 42.4767 84.9808 42.9867 85.3075 43.64C85.6408 44.2933 85.8075 45.0467 85.8075 45.9C85.8075 46.7533 85.6375 47.5067 85.2975 48.16C84.9575 48.8133 84.4875 49.3233 83.8875 49.69C83.2942 50.0567 82.6108 50.24 81.8375 50.24C81.2308 50.24 80.7042 50.13 80.2575 49.91C79.8108 49.6833 79.4608 49.43 79.2075 49.15C78.9542 48.87 78.8042 48.6467 78.7575 48.48V54.16ZM83.6975 45.9C83.6975 45.3733 83.5875 44.9133 83.3675 44.52C83.1475 44.1267 82.8542 43.8233 82.4875 43.61C82.1275 43.39 81.7308 43.28 81.2975 43.28C80.8308 43.28 80.4075 43.3933 80.0275 43.62C79.6475 43.84 79.3442 44.1467 79.1175 44.54C78.8975 44.9267 78.7875 45.38 78.7875 45.9C78.7875 46.42 78.8975 46.8767 79.1175 47.27C79.3442 47.6567 79.6475 47.96 80.0275 48.18C80.4075 48.4 80.8308 48.51 81.2975 48.51C81.7308 48.51 82.1275 48.4033 82.4875 48.19C82.8542 47.9767 83.1475 47.6733 83.3675 47.28C83.5875 46.8867 83.6975 46.4267 83.6975 45.9ZM89.3255 50H87.1755V36.24H89.3255V50ZM92.7272 46.4C92.7405 46.8333 92.8439 47.2233 93.0372 47.57C93.2305 47.9167 93.5139 48.19 93.8872 48.39C94.2672 48.5833 94.7305 48.68 95.2772 48.68C95.7505 48.68 96.1572 48.6167 96.4972 48.49C96.8439 48.3567 97.1305 48.2 97.3572 48.02C97.5839 47.8333 97.7505 47.66 97.8572 47.5L98.8072 48.79C98.6005 49.07 98.3405 49.32 98.0272 49.54C97.7139 49.76 97.3239 49.93 96.8572 50.05C96.3972 50.1767 95.8272 50.24 95.1472 50.24C94.2539 50.24 93.4772 50.0567 92.8172 49.69C92.1572 49.3233 91.6439 48.8067 91.2772 48.14C90.9172 47.4733 90.7372 46.6933 90.7372 45.8C90.7372 45 90.9039 44.28 91.2372 43.64C91.5705 42.9933 92.0539 42.4833 92.6872 42.11C93.3272 41.7367 94.0939 41.55 94.9872 41.55C95.8205 41.55 96.5439 41.7167 97.1572 42.05C97.7705 42.3833 98.2439 42.8633 98.5772 43.49C98.9172 44.11 99.0872 44.86 99.0872 45.74C99.0872 45.7933 99.0839 45.9033 99.0772 46.07C99.0772 46.2367 99.0705 46.3467 99.0572 46.4H92.7272ZM97.0872 44.84C97.0805 44.6267 97.0072 44.3833 96.8672 44.11C96.7339 43.8367 96.5172 43.6 96.2172 43.4C95.9172 43.1933 95.5172 43.09 95.0172 43.09C94.5039 43.09 94.0872 43.19 93.7672 43.39C93.4472 43.5833 93.2105 43.8167 93.0572 44.09C92.9039 44.3567 92.8139 44.6067 92.7872 44.84H97.0872ZM109.544 36.56C110.317 36.56 110.987 36.65 111.554 36.83C112.127 37.0033 112.58 37.19 112.914 37.39C113.247 37.5833 113.447 37.71 113.514 37.77L112.464 39.48C112.364 39.3933 112.184 39.2733 111.924 39.12C111.67 38.96 111.357 38.8167 110.984 38.69C110.617 38.5633 110.207 38.5 109.754 38.5C109.074 38.5 108.534 38.6333 108.134 38.9C107.734 39.16 107.534 39.54 107.534 40.04C107.534 40.3733 107.64 40.6667 107.854 40.92C108.067 41.1733 108.37 41.41 108.764 41.63C109.164 41.85 109.64 42.0733 110.194 42.3C110.66 42.4933 111.114 42.7133 111.554 42.96C112 43.2067 112.4 43.4967 112.754 43.83C113.107 44.1633 113.387 44.55 113.594 44.99C113.807 45.43 113.914 45.9367 113.914 46.51C113.914 47.11 113.79 47.6433 113.544 48.11C113.297 48.57 112.957 48.96 112.524 49.28C112.09 49.5933 111.59 49.8333 111.024 50C110.464 50.16 109.864 50.24 109.224 50.24C108.384 50.24 107.627 50.14 106.954 49.94C106.287 49.7333 105.747 49.52 105.334 49.3C104.92 49.0733 104.68 48.9267 104.614 48.86L105.724 47.07C105.804 47.1367 105.95 47.2367 106.164 47.37C106.384 47.4967 106.654 47.6333 106.974 47.78C107.294 47.92 107.647 48.04 108.034 48.14C108.427 48.2333 108.834 48.28 109.254 48.28C110.06 48.28 110.67 48.1067 111.084 47.76C111.497 47.4067 111.704 46.9533 111.704 46.4C111.704 45.98 111.57 45.6167 111.304 45.31C111.044 44.9967 110.684 44.7133 110.224 44.46C109.77 44.2067 109.254 43.9567 108.674 43.71C108.08 43.45 107.53 43.1567 107.024 42.83C106.524 42.5033 106.12 42.1067 105.814 41.64C105.507 41.1667 105.354 40.5933 105.354 39.92C105.354 39.2467 105.544 38.66 105.924 38.16C106.31 37.6533 106.82 37.26 107.454 36.98C108.087 36.7 108.784 36.56 109.544 36.56ZM114.845 41.79H116.385V38.42H118.505V41.79H120.535V43.59H118.505V47.1C118.505 47.54 118.579 47.87 118.725 48.09C118.879 48.31 119.095 48.42 119.375 48.42C119.609 48.42 119.792 48.3767 119.925 48.29C120.065 48.2033 120.149 48.1433 120.175 48.11L120.965 49.66C120.925 49.7 120.809 49.7667 120.615 49.86C120.422 49.9533 120.172 50.04 119.865 50.12C119.559 50.2 119.209 50.24 118.815 50.24C118.122 50.24 117.542 50.0333 117.075 49.62C116.615 49.2067 116.385 48.56 116.385 47.68V43.59H114.845V41.79ZM125.872 50.24C125.012 50.24 124.245 50.0533 123.572 49.68C122.905 49.3 122.382 48.7867 122.002 48.14C121.622 47.4867 121.432 46.7467 121.432 45.92C121.432 45.0933 121.622 44.35 122.002 43.69C122.382 43.03 122.905 42.51 123.572 42.13C124.245 41.7433 125.012 41.55 125.872 41.55C126.732 41.55 127.492 41.7433 128.152 42.13C128.812 42.51 129.329 43.03 129.702 43.69C130.082 44.35 130.272 45.0933 130.272 45.92C130.272 46.7467 130.082 47.4867 129.702 48.14C129.329 48.7867 128.812 49.3 128.152 49.68C127.492 50.0533 126.732 50.24 125.872 50.24ZM125.872 48.44C126.352 48.44 126.769 48.33 127.122 48.11C127.475 47.89 127.749 47.59 127.942 47.21C128.135 46.83 128.232 46.3967 128.232 45.91C128.232 45.4233 128.135 44.99 127.942 44.61C127.749 44.2233 127.475 43.9167 127.122 43.69C126.769 43.4633 126.352 43.35 125.872 43.35C125.392 43.35 124.972 43.4633 124.612 43.69C124.259 43.9167 123.982 44.2233 123.782 44.61C123.589 44.99 123.492 45.4233 123.492 45.91C123.492 46.3967 123.589 46.83 123.782 47.21C123.982 47.59 124.259 47.89 124.612 48.11C124.972 48.33 125.392 48.44 125.872 48.44ZM133.709 50H131.579V41.79H133.709V43.16H133.659C133.706 42.9933 133.832 42.7867 134.039 42.54C134.252 42.2867 134.546 42.06 134.919 41.86C135.292 41.6533 135.742 41.55 136.269 41.55C136.649 41.55 136.989 41.6033 137.289 41.71C137.589 41.8167 137.802 41.9233 137.929 42.03L137.069 43.79C136.982 43.6833 136.819 43.58 136.579 43.48C136.346 43.3733 136.056 43.32 135.709 43.32C135.276 43.32 134.909 43.4467 134.609 43.7C134.316 43.9533 134.092 44.2567 133.939 44.61C133.786 44.9633 133.709 45.2933 133.709 45.6V50ZM139.839 46.4C139.852 46.8333 139.956 47.2233 140.149 47.57C140.342 47.9167 140.626 48.19 140.999 48.39C141.379 48.5833 141.842 48.68 142.389 48.68C142.862 48.68 143.269 48.6167 143.609 48.49C143.956 48.3567 144.242 48.2 144.469 48.02C144.696 47.8333 144.862 47.66 144.969 47.5L145.919 48.79C145.712 49.07 145.452 49.32 145.139 49.54C144.826 49.76 144.436 49.93 143.969 50.05C143.509 50.1767 142.939 50.24 142.259 50.24C141.366 50.24 140.589 50.0567 139.929 49.69C139.269 49.3233 138.756 48.8067 138.389 48.14C138.029 47.4733 137.849 46.6933 137.849 45.8C137.849 45 138.016 44.28 138.349 43.64C138.682 42.9933 139.166 42.4833 139.799 42.11C140.439 41.7367 141.206 41.55 142.099 41.55C142.932 41.55 143.656 41.7167 144.269 42.05C144.882 42.3833 145.356 42.8633 145.689 43.49C146.029 44.11 146.199 44.86 146.199 45.74C146.199 45.7933 146.196 45.9033 146.189 46.07C146.189 46.2367 146.182 46.3467 146.169 46.4H139.839ZM144.199 44.84C144.192 44.6267 144.119 44.3833 143.979 44.11C143.846 43.8367 143.629 43.6 143.329 43.4C143.029 43.1933 142.629 43.09 142.129 43.09C141.616 43.09 141.199 43.19 140.879 43.39C140.559 43.5833 140.322 43.8167 140.169 44.09C140.016 44.3567 139.926 44.6067 139.899 44.84H144.199Z" fill="black"/>
</svg>
