<svg width="167" height="63" viewBox="0 0 167 63" fill="none" xmlns="http://www.w3.org/2000/svg">
<rect width="167" height="63" rx="10" fill="#D4D1FC"/>
<g clip-path="url(#clip0_618_948)">
<path d="M24.9444 25.8645L10.1328 41.3826C10.2991 41.9721 10.5981 42.5157 11.0067 42.9719C11.4153 43.4282 11.9228 43.785 12.4905 44.015C13.0581 44.245 13.6708 44.3422 14.2818 44.2991C14.8928 44.2561 15.4858 44.0739 16.0156 43.7665L32.6814 34.2748L24.9444 25.8645Z" fill="#EA4335"/>
<path d="M39.9217 23.2266L32.7148 19.0986L24.6025 26.2174L32.7478 34.2524L39.8998 30.1686C40.5334 29.8369 41.0641 29.338 41.4343 28.7262C41.8046 28.1143 42.0004 27.4128 42.0004 26.6976C42.0004 25.9824 41.8046 25.2808 41.4343 24.669C41.0641 24.0571 40.5334 23.5583 39.8998 23.2265L39.9217 23.2266Z" fill="#FBBC04"/>
<path d="M10.1325 11.9358C10.0431 12.2668 9.9985 12.6083 10 12.9512V40.367C10.0009 40.7098 10.0454 41.051 10.1325 41.3825L25.4519 26.2618L10.1325 11.9358Z" fill="#4285F4"/>
<path d="M25.0548 26.6593L32.7146 19.0989L16.0708 9.56288C15.4446 9.19616 14.7324 9.00194 14.0067 9.00001C12.2058 8.99651 10.6226 10.1918 10.1328 11.9249L25.0548 26.6593Z" fill="#34A853"/>
</g>
<path d="M57.59 10.12H59.192L63.584 22H61.937L60.911 19.138H55.871L54.827 22H53.18L57.59 10.12ZM56.366 17.752H60.425L58.409 12.01H58.382L56.366 17.752ZM63.1605 14.611H64.8435L67.2555 20.551L69.6675 14.611H71.3415L68.1825 22H66.3375L63.1605 14.611ZM78.3506 22V20.56C78.3026 20.71 78.1616 20.917 77.9276 21.181C77.6996 21.445 77.3846 21.685 76.9826 21.901C76.5866 22.111 76.1186 22.216 75.5786 22.216C74.8946 22.216 74.2736 22.054 73.7156 21.73C73.1636 21.406 72.7226 20.953 72.3926 20.371C72.0686 19.783 71.9066 19.096 71.9066 18.31C71.9066 17.524 72.0686 16.84 72.3926 16.258C72.7226 15.67 73.1636 15.214 73.7156 14.89C74.2736 14.56 74.8946 14.395 75.5786 14.395C76.1126 14.395 76.5746 14.491 76.9646 14.683C77.3606 14.875 77.6756 15.097 77.9096 15.349C78.1496 15.601 78.2906 15.817 78.3326 15.997V14.611H79.8806V22H78.3506ZM73.4546 18.31C73.4546 18.844 73.5716 19.306 73.8056 19.696C74.0396 20.086 74.3426 20.389 74.7146 20.605C75.0926 20.815 75.4946 20.92 75.9206 20.92C76.3766 20.92 76.7846 20.812 77.1446 20.596C77.5046 20.38 77.7896 20.077 77.9996 19.687C78.2096 19.291 78.3146 18.832 78.3146 18.31C78.3146 17.788 78.2096 17.332 77.9996 16.942C77.7896 16.546 77.5046 16.24 77.1446 16.024C76.7846 15.802 76.3766 15.691 75.9206 15.691C75.4946 15.691 75.0926 15.799 74.7146 16.015C74.3426 16.231 74.0396 16.534 73.8056 16.924C73.5716 17.314 73.4546 17.776 73.4546 18.31ZM81.7441 22V14.611H83.3101V22H81.7441ZM82.5451 12.082C82.2631 12.082 82.0201 11.983 81.8161 11.785C81.6181 11.581 81.5191 11.338 81.5191 11.056C81.5191 10.774 81.6181 10.531 81.8161 10.327C82.0201 10.123 82.2631 10.021 82.5451 10.021C82.7311 10.021 82.9021 10.069 83.0581 10.165C83.2201 10.261 83.3491 10.387 83.4451 10.543C83.5411 10.693 83.5891 10.864 83.5891 11.056C83.5891 11.338 83.4871 11.581 83.2831 11.785C83.0791 11.983 82.8331 12.082 82.5451 12.082ZM86.933 22H85.358V9.616H86.933V22ZM94.7288 22V20.56C94.6808 20.71 94.5398 20.917 94.3058 21.181C94.0778 21.445 93.7628 21.685 93.3608 21.901C92.9648 22.111 92.4968 22.216 91.9568 22.216C91.2728 22.216 90.6518 22.054 90.0938 21.73C89.5418 21.406 89.1008 20.953 88.7708 20.371C88.4468 19.783 88.2848 19.096 88.2848 18.31C88.2848 17.524 88.4468 16.84 88.7708 16.258C89.1008 15.67 89.5418 15.214 90.0938 14.89C90.6518 14.56 91.2728 14.395 91.9568 14.395C92.4908 14.395 92.9528 14.491 93.3428 14.683C93.7388 14.875 94.0538 15.097 94.2878 15.349C94.5278 15.601 94.6688 15.817 94.7108 15.997V14.611H96.2588V22H94.7288ZM89.8328 18.31C89.8328 18.844 89.9498 19.306 90.1838 19.696C90.4178 20.086 90.7208 20.389 91.0928 20.605C91.4708 20.815 91.8728 20.92 92.2988 20.92C92.7548 20.92 93.1628 20.812 93.5228 20.596C93.8828 20.38 94.1678 20.077 94.3778 19.687C94.5878 19.291 94.6928 18.832 94.6928 18.31C94.6928 17.788 94.5878 17.332 94.3778 16.942C94.1678 16.546 93.8828 16.24 93.5228 16.024C93.1628 15.802 92.7548 15.691 92.2988 15.691C91.8728 15.691 91.4708 15.799 91.0928 16.015C90.7208 16.231 90.4178 16.534 90.1838 16.924C89.9498 17.314 89.8328 17.776 89.8328 18.31ZM97.9152 22V9.616H99.4992V15.997C99.5352 15.811 99.6762 15.592 99.9222 15.34C100.168 15.088 100.498 14.869 100.912 14.683C101.326 14.491 101.803 14.395 102.343 14.395C103.033 14.395 103.645 14.56 104.179 14.89C104.713 15.214 105.133 15.67 105.439 16.258C105.751 16.84 105.907 17.524 105.907 18.31C105.907 19.096 105.751 19.783 105.439 20.371C105.133 20.953 104.713 21.406 104.179 21.73C103.645 22.054 103.033 22.216 102.343 22.216C101.833 22.216 101.371 22.12 100.957 21.928C100.549 21.736 100.216 21.511 99.9582 21.253C99.7002 20.995 99.5382 20.764 99.4722 20.56V22H97.9152ZM104.35 18.31C104.35 17.776 104.242 17.314 104.026 16.924C103.81 16.534 103.522 16.231 103.162 16.015C102.808 15.799 102.418 15.691 101.992 15.691C101.53 15.691 101.11 15.802 100.732 16.024C100.354 16.24 100.054 16.546 99.8322 16.942C99.6102 17.332 99.4992 17.788 99.4992 18.31C99.4992 18.832 99.6102 19.291 99.8322 19.687C100.054 20.077 100.354 20.38 100.732 20.596C101.11 20.812 101.53 20.92 101.992 20.92C102.418 20.92 102.808 20.815 103.162 20.605C103.522 20.389 103.81 20.086 104.026 19.696C104.242 19.306 104.35 18.844 104.35 18.31ZM108.62 22H107.045V9.616H108.62V22ZM111.456 18.625C111.462 19.069 111.558 19.474 111.744 19.84C111.93 20.206 112.206 20.497 112.572 20.713C112.944 20.929 113.4 21.037 113.94 21.037C114.396 21.037 114.783 20.971 115.101 20.839C115.425 20.701 115.689 20.539 115.893 20.353C116.097 20.161 116.244 19.99 116.334 19.84L117.099 20.785C116.901 21.073 116.658 21.325 116.37 21.541C116.088 21.757 115.743 21.922 115.335 22.036C114.927 22.156 114.429 22.216 113.841 22.216C113.049 22.216 112.362 22.048 111.78 21.712C111.204 21.37 110.76 20.899 110.448 20.299C110.136 19.693 109.98 19 109.98 18.22C109.98 17.5 110.127 16.852 110.421 16.276C110.715 15.694 111.141 15.235 111.699 14.899C112.263 14.563 112.941 14.395 113.733 14.395C114.459 14.395 115.089 14.548 115.623 14.854C116.163 15.154 116.58 15.58 116.874 16.132C117.174 16.684 117.324 17.344 117.324 18.112C117.324 18.16 117.321 18.247 117.315 18.373C117.309 18.493 117.303 18.577 117.297 18.625H111.456ZM115.83 17.446C115.824 17.2 115.752 16.93 115.614 16.636C115.482 16.342 115.266 16.09 114.966 15.88C114.666 15.67 114.261 15.565 113.751 15.565C113.223 15.565 112.797 15.667 112.473 15.871C112.155 16.075 111.921 16.324 111.771 16.618C111.621 16.906 111.534 17.182 111.51 17.446H115.83ZM126.156 22.216C125.394 22.216 124.716 22.045 124.122 21.703C123.534 21.361 123.072 20.899 122.736 20.317C122.4 19.729 122.232 19.066 122.232 18.328C122.232 17.59 122.4 16.924 122.736 16.33C123.072 15.736 123.534 15.265 124.122 14.917C124.716 14.569 125.394 14.395 126.156 14.395C126.912 14.395 127.581 14.569 128.163 14.917C128.751 15.265 129.21 15.736 129.54 16.33C129.87 16.924 130.035 17.59 130.035 18.328C130.035 19.066 129.87 19.729 129.54 20.317C129.21 20.899 128.751 21.361 128.163 21.703C127.581 22.045 126.912 22.216 126.156 22.216ZM126.156 20.875C126.636 20.875 127.053 20.764 127.407 20.542C127.767 20.32 128.046 20.017 128.244 19.633C128.442 19.243 128.541 18.805 128.541 18.319C128.541 17.833 128.442 17.395 128.244 17.005C128.046 16.615 127.767 16.306 127.407 16.078C127.053 15.85 126.636 15.736 126.156 15.736C125.67 15.736 125.247 15.85 124.887 16.078C124.527 16.306 124.245 16.615 124.041 17.005C123.843 17.395 123.744 17.833 123.744 18.319C123.744 18.805 123.843 19.243 124.041 19.633C124.245 20.017 124.527 20.32 124.887 20.542C125.247 20.764 125.67 20.875 126.156 20.875ZM135.502 14.395C135.988 14.395 136.459 14.497 136.915 14.701C137.377 14.905 137.755 15.229 138.049 15.673C138.349 16.111 138.499 16.684 138.499 17.392V22H136.915V17.698C136.915 16.966 136.744 16.435 136.402 16.105C136.06 15.769 135.619 15.601 135.079 15.601C134.725 15.601 134.383 15.703 134.053 15.907C133.729 16.105 133.462 16.381 133.252 16.735C133.042 17.083 132.937 17.479 132.937 17.923V22H131.371V14.611H132.937V15.925C132.991 15.721 133.138 15.499 133.378 15.259C133.618 15.019 133.924 14.815 134.296 14.647C134.668 14.479 135.07 14.395 135.502 14.395Z" fill="#45413C"/>
<path d="M59.91 42.77H66.59V43.52C66.59 44.4533 66.43 45.3267 66.11 46.14C65.79 46.9467 65.3367 47.66 64.75 48.28C64.17 48.8933 63.4833 49.3733 62.69 49.72C61.8967 50.0667 61.02 50.24 60.06 50.24C59.0867 50.24 58.1933 50.0633 57.38 49.71C56.5733 49.35 55.8733 48.8567 55.28 48.23C54.6933 47.6033 54.2367 46.8767 53.91 46.05C53.59 45.2233 53.43 44.3367 53.43 43.39C53.43 42.45 53.59 41.5667 53.91 40.74C54.2367 39.9133 54.6933 39.1867 55.28 38.56C55.8733 37.9333 56.5733 37.4433 57.38 37.09C58.1933 36.7367 59.0867 36.56 60.06 36.56C60.7733 36.56 61.4133 36.64 61.98 36.8C62.5533 36.9533 63.0633 37.1633 63.51 37.43C63.9567 37.6967 64.3467 38 64.68 38.34C65.0133 38.6733 65.2967 39.0167 65.53 39.37L63.59 40.35C63.23 39.8367 62.76 39.41 62.18 39.07C61.6 38.7233 60.8933 38.55 60.06 38.55C59.4133 38.55 58.8167 38.6767 58.27 38.93C57.73 39.1833 57.26 39.5333 56.86 39.98C56.4667 40.4267 56.16 40.9433 55.94 41.53C55.7267 42.11 55.62 42.73 55.62 43.39C55.62 44.05 55.7267 44.6733 55.94 45.26C56.16 45.8467 56.4667 46.3633 56.86 46.81C57.26 47.2567 57.73 47.61 58.27 47.87C58.8167 48.1233 59.4133 48.25 60.06 48.25C60.6667 48.25 61.2167 48.1533 61.71 47.96C62.21 47.76 62.6433 47.4867 63.01 47.14C63.3767 46.7933 63.6667 46.39 63.88 45.93C64.0933 45.4633 64.2167 44.9633 64.25 44.43H59.91V42.77ZM71.9727 50.24C71.1127 50.24 70.346 50.0533 69.6727 49.68C69.006 49.3 68.4827 48.7867 68.1027 48.14C67.7227 47.4867 67.5327 46.7467 67.5327 45.92C67.5327 45.0933 67.7227 44.35 68.1027 43.69C68.4827 43.03 69.006 42.51 69.6727 42.13C70.346 41.7433 71.1127 41.55 71.9727 41.55C72.8327 41.55 73.5927 41.7433 74.2527 42.13C74.9127 42.51 75.4293 43.03 75.8027 43.69C76.1827 44.35 76.3727 45.0933 76.3727 45.92C76.3727 46.7467 76.1827 47.4867 75.8027 48.14C75.4293 48.7867 74.9127 49.3 74.2527 49.68C73.5927 50.0533 72.8327 50.24 71.9727 50.24ZM71.9727 48.44C72.4527 48.44 72.8693 48.33 73.2227 48.11C73.576 47.89 73.8493 47.59 74.0427 47.21C74.236 46.83 74.3327 46.3967 74.3327 45.91C74.3327 45.4233 74.236 44.99 74.0427 44.61C73.8493 44.2233 73.576 43.9167 73.2227 43.69C72.8693 43.4633 72.4527 43.35 71.9727 43.35C71.4927 43.35 71.0727 43.4633 70.7127 43.69C70.3593 43.9167 70.0827 44.2233 69.8827 44.61C69.6893 44.99 69.5927 45.4233 69.5927 45.91C69.5927 46.3967 69.6893 46.83 69.8827 47.21C70.0827 47.59 70.3593 47.89 70.7127 48.11C71.0727 48.33 71.4927 48.44 71.9727 48.44ZM81.6898 50.24C80.8298 50.24 80.0632 50.0533 79.3898 49.68C78.7232 49.3 78.1998 48.7867 77.8198 48.14C77.4398 47.4867 77.2498 46.7467 77.2498 45.92C77.2498 45.0933 77.4398 44.35 77.8198 43.69C78.1998 43.03 78.7232 42.51 79.3898 42.13C80.0632 41.7433 80.8298 41.55 81.6898 41.55C82.5498 41.55 83.3098 41.7433 83.9698 42.13C84.6298 42.51 85.1465 43.03 85.5198 43.69C85.8998 44.35 86.0898 45.0933 86.0898 45.92C86.0898 46.7467 85.8998 47.4867 85.5198 48.14C85.1465 48.7867 84.6298 49.3 83.9698 49.68C83.3098 50.0533 82.5498 50.24 81.6898 50.24ZM81.6898 48.44C82.1698 48.44 82.5865 48.33 82.9398 48.11C83.2932 47.89 83.5665 47.59 83.7598 47.21C83.9532 46.83 84.0498 46.3967 84.0498 45.91C84.0498 45.4233 83.9532 44.99 83.7598 44.61C83.5665 44.2233 83.2932 43.9167 82.9398 43.69C82.5865 43.4633 82.1698 43.35 81.6898 43.35C81.2098 43.35 80.7898 43.4633 80.4298 43.69C80.0765 43.9167 79.7998 44.2233 79.5998 44.61C79.4065 44.99 79.3098 45.4233 79.3098 45.91C79.3098 46.3967 79.4065 46.83 79.5998 47.21C79.7998 47.59 80.0765 47.89 80.4298 48.11C80.7898 48.33 81.2098 48.44 81.6898 48.44ZM91.537 54.39C90.9104 54.39 90.327 54.3267 89.787 54.2C89.2537 54.08 88.777 53.8967 88.357 53.65C87.937 53.41 87.597 53.1133 87.337 52.76L88.667 51.44C88.807 51.6133 88.987 51.7933 89.207 51.98C89.427 52.1733 89.717 52.3333 90.077 52.46C90.437 52.5933 90.8937 52.66 91.447 52.66C91.987 52.66 92.447 52.55 92.827 52.33C93.2137 52.11 93.507 51.8067 93.707 51.42C93.9137 51.04 94.017 50.6 94.017 50.1V49.85H96.117V50.23C96.117 51.1367 95.9137 51.8967 95.507 52.51C95.1004 53.13 94.5504 53.5967 93.857 53.91C93.1637 54.23 92.3904 54.39 91.537 54.39ZM94.017 50V48.48C93.9637 48.64 93.8104 48.86 93.557 49.14C93.3104 49.42 92.9704 49.6733 92.537 49.9C92.1104 50.1267 91.6037 50.24 91.017 50.24C90.2504 50.24 89.5604 50.0567 88.947 49.69C88.3337 49.3233 87.8504 48.8133 87.497 48.16C87.1437 47.5067 86.967 46.7533 86.967 45.9C86.967 45.0467 87.1437 44.2933 87.497 43.64C87.8504 42.9867 88.3337 42.4767 88.947 42.11C89.5604 41.7367 90.2504 41.55 91.017 41.55C91.5904 41.55 92.087 41.65 92.507 41.85C92.927 42.05 93.2637 42.28 93.517 42.54C93.777 42.8 93.937 43.0267 93.997 43.22V41.79H96.117V50H94.017ZM89.077 45.9C89.077 46.4267 89.1937 46.8867 89.427 47.28C89.6604 47.6733 89.9637 47.9767 90.337 48.19C90.717 48.4033 91.1237 48.51 91.557 48.51C92.0237 48.51 92.437 48.4 92.797 48.18C93.1637 47.96 93.4504 47.6567 93.657 47.27C93.8704 46.8767 93.977 46.42 93.977 45.9C93.977 45.38 93.8704 44.9267 93.657 44.54C93.4504 44.1467 93.1637 43.84 92.797 43.62C92.437 43.3933 92.0237 43.28 91.557 43.28C91.1237 43.28 90.717 43.39 90.337 43.61C89.9637 43.8233 89.6604 44.1267 89.427 44.52C89.1937 44.9133 89.077 45.3733 89.077 45.9ZM100.175 50H98.0255V36.24H100.175V50ZM103.577 46.4C103.591 46.8333 103.694 47.2233 103.887 47.57C104.081 47.9167 104.364 48.19 104.737 48.39C105.117 48.5833 105.581 48.68 106.127 48.68C106.601 48.68 107.007 48.6167 107.347 48.49C107.694 48.3567 107.981 48.2 108.207 48.02C108.434 47.8333 108.601 47.66 108.707 47.5L109.657 48.79C109.451 49.07 109.191 49.32 108.877 49.54C108.564 49.76 108.174 49.93 107.707 50.05C107.247 50.1767 106.677 50.24 105.997 50.24C105.104 50.24 104.327 50.0567 103.667 49.69C103.007 49.3233 102.494 48.8067 102.127 48.14C101.767 47.4733 101.587 46.6933 101.587 45.8C101.587 45 101.754 44.28 102.087 43.64C102.421 42.9933 102.904 42.4833 103.537 42.11C104.177 41.7367 104.944 41.55 105.837 41.55C106.671 41.55 107.394 41.7167 108.007 42.05C108.621 42.3833 109.094 42.8633 109.427 43.49C109.767 44.11 109.937 44.86 109.937 45.74C109.937 45.7933 109.934 45.9033 109.927 46.07C109.927 46.2367 109.921 46.3467 109.907 46.4H103.577ZM107.937 44.84C107.931 44.6267 107.857 44.3833 107.717 44.11C107.584 43.8367 107.367 43.6 107.067 43.4C106.767 43.1933 106.367 43.09 105.867 43.09C105.354 43.09 104.937 43.19 104.617 43.39C104.297 43.5833 104.061 43.8167 103.907 44.09C103.754 44.3567 103.664 44.6067 103.637 44.84H107.937ZM116.144 36.8H120.204C121.03 36.8 121.777 36.94 122.444 37.22C123.117 37.5 123.654 37.93 124.054 38.51C124.454 39.09 124.654 39.8367 124.654 40.75C124.654 41.6633 124.454 42.4267 124.054 43.04C123.654 43.6467 123.117 44.1033 122.444 44.41C121.777 44.7167 121.03 44.87 120.204 44.87H118.244V50H116.144V36.8ZM118.244 43.15H119.624C120.137 43.15 120.604 43.0767 121.024 42.93C121.45 42.7767 121.787 42.5267 122.034 42.18C122.287 41.8333 122.414 41.3733 122.414 40.8C122.414 40.22 122.287 39.7667 122.034 39.44C121.787 39.1067 121.45 38.87 121.024 38.73C120.604 38.59 120.137 38.52 119.624 38.52H118.244V43.15ZM128.4 50H126.25V36.24H128.4V50ZM136.851 50V48.48C136.798 48.64 136.645 48.86 136.391 49.14C136.145 49.42 135.805 49.6733 135.371 49.9C134.945 50.1267 134.438 50.24 133.851 50.24C133.085 50.24 132.395 50.0567 131.781 49.69C131.168 49.3233 130.685 48.8133 130.331 48.16C129.978 47.5067 129.801 46.7533 129.801 45.9C129.801 45.0467 129.978 44.2933 130.331 43.64C130.685 42.9867 131.168 42.4767 131.781 42.11C132.395 41.7367 133.085 41.55 133.851 41.55C134.425 41.55 134.921 41.65 135.341 41.85C135.761 42.05 136.098 42.28 136.351 42.54C136.611 42.8 136.771 43.0267 136.831 43.22V41.79H138.951V50H136.851ZM131.911 45.9C131.911 46.4267 132.028 46.8867 132.261 47.28C132.495 47.6733 132.798 47.9767 133.171 48.19C133.551 48.4033 133.958 48.51 134.391 48.51C134.858 48.51 135.271 48.4 135.631 48.18C135.998 47.96 136.285 47.6567 136.491 47.27C136.705 46.8767 136.811 46.42 136.811 45.9C136.811 45.38 136.705 44.9267 136.491 44.54C136.285 44.1467 135.998 43.84 135.631 43.62C135.271 43.3933 134.858 43.28 134.391 43.28C133.958 43.28 133.551 43.39 133.171 43.61C132.798 43.8233 132.495 44.1267 132.261 44.52C132.028 44.9133 131.911 45.3733 131.911 45.9ZM144.382 48.09L146.982 41.79H149.112L143.532 54.16H141.372L143.252 50L139.852 41.79H142.012L144.382 48.09Z" fill="black"/>
<defs>
<clipPath id="clip0_618_948">
<rect width="32" height="35.375" fill="white" transform="translate(10 9)"/>
</clipPath>
</defs>
</svg>
